# xmcd
#
# Track frame offsets:
#	150
#	17575
#	37203
#	58443
#	78330
#	100263
#	120473
#	141773
#	149233
#	170773
#	190760
#	212988
#	234108
#	254403
#	277243
#	294605
#
# Disc length: 4209 seconds
#
# Revision: 3
# Processed by: cddbd v1.5.1PL0 Copyright (c) Steve Scherf et al.
# Submitted via: audiograbber 1.83.01
#
DISCID=01106f10
DTITLE=Monica - miss thang
DYEAR=1994
DGENRE=R&B
TTITLE0=Miss Thang
TTITLE1=Don't Take It Personal (Just One Of Dem Days)
TTITLE2=Like This And Like That
TTITLE3=Get Down
TTITLE4=With You
TTITLE5=Skate
TTITLE6=Angel
TTITLE7=Woman In Me (Interlude)
TTITLE8=Tell Me If You Still Care
TTITLE9=Let's Straighten It Out
TTITLE10=Before You Walk Out OF My Life
TTITLE11=Now I'm Gone
TTITLE12=Why I Love You So Much
TTITLE13=Never Can Say Goodbye
TTITLE14=Don't Take It Personal (Just One Of Dem Days - Remix)
TTITLE15=Forever Always
EXTD=
EXTT0=
EXTT1=
EXTT2=
EXTT3=
EXTT4=
EXTT5=
EXTT6=
EXTT7=
EXTT8=
EXTT9=
EXTT10=
EXTT11=
EXTT12=
EXTT13=
EXTT14=
EXTT15=
PLAYORDER=
